<?xml version="1.0" standalone="no"?>
<!DOCTYPE svg PUBLIC "-//W3C//DTD SVG 20010904//EN"
 "http://www.w3.org/TR/2001/REC-SVG-20010904/DTD/svg10.dtd">
<svg version="1.0" xmlns="http://www.w3.org/2000/svg"
 width="434.000000pt" height="434.000000pt" viewBox="0 0 434.000000 434.000000"
 preserveAspectRatio="xMidYMid meet">
<metadata>
Created by potrace 1.14, written by Peter Selinger 2001-2017
</metadata>
<g transform="translate(0.000000,434.000000) scale(0.100000,-0.100000)"
fill="#000000" stroke="none">
<path d="M1900 4299 c0 -3 -11 -5 -25 -4 -13 2 -23 -1 -22 -7 1 -6 -4 -13 -10
-15 -7 -3 -13 0 -13 6 0 7 -8 7 -24 1 -13 -5 -27 -6 -30 -3 -3 4 -16 -2 -28
-13 -13 -12 -18 -13 -13 -4 7 12 6 13 -7 3 -8 -7 -18 -10 -21 -6 -4 3 -7 1 -7
-6 0 -7 -4 -10 -9 -6 -5 3 -12 1 -16 -5 -4 -7 -12 -7 -25 0 -13 7 -21 7 -25 0
-4 -7 -13 -7 -26 0 -15 8 -19 8 -17 -2 2 -7 -3 -12 -9 -10 -7 1 -13 -2 -13 -7
0 -12 -37 -23 -84 -24 -22 -1 -41 -8 -44 -15 -2 -6 -7 -10 -12 -7 -4 3 -13 -2
-20 -10 -14 -17 -35 -20 -24 -4 5 8 2 9 -11 2 -10 -6 -27 -8 -39 -6 -17 4 -18
3 -6 -6 13 -9 12 -11 -3 -11 -10 0 -15 -4 -12 -10 3 -5 0 -7 -8 -4 -8 3 -18 1
-21 -5 -4 -6 -14 -7 -23 -4 -10 4 -14 2 -10 -4 4 -6 0 -13 -7 -16 -8 -3 -17
-1 -20 6 -3 9 -5 8 -5 -1 -1 -7 -5 -11 -10 -8 -4 3 -18 -5 -31 -19 -13 -14
-28 -21 -38 -18 -9 4 -13 2 -8 -5 3 -6 -3 -13 -14 -17 -11 -3 -20 -11 -20 -17
0 -5 -7 -8 -15 -4 -9 3 -24 -3 -34 -13 -11 -11 -22 -17 -25 -14 -3 4 -6 1 -6
-6 0 -8 -7 -11 -15 -7 -9 3 -15 0 -15 -10 0 -9 -6 -14 -13 -11 -8 3 -20 -3
-28 -14 -7 -10 -19 -19 -26 -19 -7 0 -13 -4 -13 -10 0 -5 -7 -10 -15 -10 -8 0
-12 -6 -9 -15 4 -10 0 -13 -15 -10 -12 2 -20 -1 -18 -8 1 -6 -8 -13 -20 -15
-13 -2 -23 -7 -23 -12 0 -5 -9 -12 -20 -15 -11 -4 -18 -10 -16 -14 6 -10 -32
-42 -53 -46 -9 -1 -15 -10 -13 -19 2 -9 -4 -16 -14 -16 -20 0 -87 -68 -79 -80
3 -5 0 -12 -6 -16 -8 -5 -10 -2 -5 7 4 8 0 5 -8 -5 -9 -11 -16 -16 -16 -11 0
4 -11 -4 -25 -19 -14 -15 -25 -33 -25 -40 0 -8 -7 -17 -16 -20 -9 -4 -14 -9
-11 -12 6 -7 -15 -33 -23 -30 -3 1 -16 -9 -30 -22 -14 -14 -19 -22 -12 -18 8
5 -3 -15 -23 -43 -20 -28 -41 -51 -47 -51 -5 0 -7 -4 -3 -10 3 -5 -3 -18 -15
-30 -11 -11 -20 -27 -20 -35 0 -8 -6 -15 -12 -15 -17 0 -41 -50 -25 -51 7 0 2
-4 -10 -9 -14 -6 -21 -15 -17 -24 3 -8 -3 -19 -16 -26 -11 -6 -18 -15 -15 -21
4 -5 0 -9 -7 -9 -10 0 -10 -2 1 -9 11 -7 9 -14 -13 -35 -15 -14 -25 -29 -22
-35 4 -5 2 -12 -3 -16 -6 -3 -8 -12 -5 -20 3 -8 -6 -26 -21 -41 -20 -20 -24
-29 -14 -35 10 -6 9 -9 -4 -15 -10 -4 -16 -12 -13 -20 3 -7 -2 -18 -10 -25 -8
-7 -13 -18 -10 -26 3 -8 -1 -16 -9 -19 -8 -4 -12 -10 -9 -15 3 -5 0 -9 -6 -9
-6 0 -8 -5 -5 -11 16 -25 12 -60 -9 -74 -11 -8 -16 -15 -11 -15 5 0 0 -7 -11
-15 -10 -8 -14 -15 -9 -15 10 0 15 -50 4 -50 -8 0 -4 -38 5 -47 4 -4 -3 -15
-16 -25 l-23 -17 -1 -423 c-1 -367 0 -425 14 -440 8 -10 12 -18 7 -18 -4 0 0
-12 10 -26 9 -15 12 -23 6 -20 -12 8 -15 -6 -4 -18 9 -9 11 -46 3 -46 -4 0 -5
-11 -2 -25 2 -14 7 -23 11 -21 3 1 14 -5 23 -16 10 -10 14 -18 10 -18 -5 0 -9
-7 -9 -15 0 -8 4 -15 9 -15 5 0 4 -8 -1 -18 -7 -13 -6 -23 2 -31 7 -7 13 -16
13 -21 1 -6 2 -14 3 -20 0 -5 8 -10 16 -10 13 0 14 -4 5 -20 -8 -15 -8 -20 1
-18 7 2 14 -9 15 -26 2 -15 11 -35 21 -43 10 -8 12 -11 5 -8 -11 6 -11 3 0
-14 7 -12 16 -21 21 -21 4 0 3 -8 -2 -19 -8 -15 -4 -24 21 -46 21 -19 27 -30
18 -35 -8 -5 -4 -15 17 -35 15 -15 21 -24 13 -21 -13 7 -13 6 0 -6 8 -7 16
-20 18 -28 2 -8 8 -17 13 -18 5 -2 7 -8 4 -12 -3 -5 5 -16 17 -25 13 -8 22
-19 21 -23 0 -4 4 -6 10 -4 7 2 9 1 5 -3 -8 -9 31 -85 44 -85 5 0 6 -4 3 -10
-3 -5 5 -15 19 -22 19 -8 23 -14 15 -24 -12 -14 5 -29 21 -19 6 4 9 1 8 -7 -2
-7 3 -12 11 -10 8 2 11 -3 8 -12 -4 -10 2 -20 14 -26 11 -6 17 -15 15 -19 -3
-4 2 -17 10 -27 9 -10 13 -13 9 -6 -3 6 -3 12 0 12 9 0 31 -23 33 -35 1 -5 6
-10 11 -10 14 0 51 -42 44 -49 -4 -3 -1 -6 6 -6 7 0 9 -5 6 -10 -4 -6 -3 -10
2 -9 28 5 35 -1 22 -18 -7 -10 -10 -15 -5 -11 12 10 46 -10 46 -27 0 -9 6 -12
15 -9 10 4 15 0 15 -11 0 -9 3 -14 7 -12 9 5 34 -18 27 -25 -2 -3 7 -11 21
-18 14 -7 25 -17 25 -22 0 -4 9 -8 21 -8 11 0 18 -4 15 -9 -3 -5 4 -11 15 -14
12 -3 18 -10 14 -16 -3 -6 -1 -12 4 -12 6 -1 16 -2 21 -3 6 0 14 -7 19 -14 5
-8 12 -14 17 -15 5 -1 8 -6 6 -11 -2 -5 4 -6 13 -3 8 4 15 2 15 -4 0 -6 4 -8
9 -4 5 3 12 -4 16 -15 3 -11 13 -20 21 -20 8 0 12 -5 9 -11 -4 -6 -1 -10 6 -8
35 4 59 -2 59 -16 0 -8 3 -15 8 -16 36 -3 59 -12 69 -26 7 -9 13 -14 13 -10 0
4 10 -1 22 -13 12 -11 27 -19 32 -19 22 3 34 -2 56 -21 13 -11 36 -20 52 -20
15 0 28 -4 28 -10 0 -5 7 -10 15 -10 8 0 15 -5 15 -11 0 -7 17 -10 45 -7 25 2
45 0 45 -4 0 -4 11 -3 24 2 13 5 26 6 29 3 4 -3 13 2 22 11 9 9 14 16 10 16
-3 0 2 11 11 25 9 14 13 25 9 25 -4 0 -3 6 3 13 6 7 7 18 3 26 -5 8 -3 24 5
39 7 14 11 29 8 34 -3 4 0 8 7 8 8 0 8 4 -1 15 -9 11 -9 15 -1 15 8 0 9 6 2
18 -6 11 -6 24 0 35 7 12 6 17 -2 17 -8 0 -8 4 1 15 10 12 10 15 0 15 -10 0
-10 3 0 15 10 12 10 15 0 15 -10 0 -10 3 0 15 10 12 10 15 0 15 -10 0 -10 3
-1 14 8 9 8 15 2 18 -7 2 -6 13 3 30 8 15 16 40 18 55 1 15 6 31 11 34 10 7
14 109 5 102 -13 -7 -9 12 4 25 9 9 9 12 0 12 -9 0 -8 8 4 25 9 14 13 25 10
25 -4 0 -2 9 4 20 8 15 8 20 -2 20 -7 0 -2 9 12 20 14 11 20 20 13 20 -12 0
-6 37 10 58 5 6 6 12 2 12 -4 0 -2 7 5 15 9 11 9 15 1 15 -7 0 -9 5 -4 13 4 6
6 22 4 35 -1 12 2 22 8 22 6 0 11 6 11 13 0 8 6 14 13 15 6 0 42 3 79 5 36 3
70 7 75 9 4 3 26 4 48 4 22 -1 42 2 45 5 4 6 131 18 246 24 23 1 46 5 50 8 5
3 45 8 89 12 44 4 95 8 112 10 18 2 35 -1 38 -6 4 -5 1 -9 -4 -9 -6 0 -20 -9
-31 -20 -11 -11 -18 -20 -15 -20 2 0 0 -11 -5 -25 -6 -16 -6 -25 1 -25 6 0 6
-7 -1 -20 -8 -15 -8 -20 1 -20 7 0 2 -11 -10 -24 -14 -15 -19 -26 -12 -31 8
-4 8 -12 1 -26 -8 -13 -7 -19 0 -19 7 0 8 -6 0 -19 -7 -13 -7 -22 0 -26 7 -4
7 -12 0 -25 -6 -12 -7 -21 0 -25 5 -3 7 -12 4 -20 -4 -8 -11 -12 -17 -8 -6 4
-7 1 -2 -7 4 -7 2 -16 -6 -21 -11 -7 -11 -9 -1 -9 7 0 11 -4 7 -9 -10 -17 -13
-71 -3 -71 16 0 27 -44 14 -59 -9 -12 -8 -13 4 -6 13 8 13 7 1 -8 -10 -13 -10
-17 -1 -17 10 0 10 -3 1 -14 -8 -9 -8 -16 -2 -20 7 -5 7 -15 1 -31 -7 -17 -6
-25 1 -25 6 0 8 -7 5 -16 -4 -10 -2 -13 6 -8 8 5 9 2 5 -9 -3 -9 -2 -19 4 -23
6 -4 6 -11 -2 -20 -9 -11 -9 -14 0 -14 7 0 9 -5 6 -11 -9 -14 -14 -59 -6 -59
3 0 6 -11 6 -25 0 -14 -4 -25 -9 -25 -5 0 0 -8 12 -18 16 -14 18 -22 10 -30
-7 -7 -8 -12 -2 -12 5 0 10 -9 10 -20 0 -11 -5 -20 -10 -20 -5 0 -2 -8 7 -18
10 -10 14 -22 10 -25 -3 -4 -1 -7 6 -7 9 0 9 -5 1 -20 -8 -15 -8 -20 2 -18 6
2 12 -2 13 -9 0 -6 3 -14 7 -18 4 -4 4 -13 1 -21 -8 -21 222 -20 244 1 8 8 19
13 24 10 5 -4 9 -1 9 6 0 7 3 9 6 6 4 -3 15 -2 25 4 14 7 19 6 19 -3 0 -9 3
-9 10 2 5 8 10 11 10 7 0 -5 7 -1 16 7 8 9 19 14 24 11 4 -3 13 2 20 10 6 7
18 11 27 8 8 -3 18 -2 22 3 12 17 71 45 81 39 6 -3 10 1 10 9 0 9 5 16 11 16
5 0 7 -6 4 -12 -4 -7 0 -5 8 5 8 9 19 17 26 17 6 0 11 5 11 10 0 6 11 10 25
10 14 0 34 9 45 20 11 11 27 20 35 20 8 0 15 5 15 11 0 5 4 8 9 4 5 -3 12 3
16 14 4 13 13 18 25 16 11 -2 19 1 17 8 -1 6 4 11 11 12 8 0 20 8 27 18 7 10
22 19 34 20 19 1 25 9 22 29 0 4 10 10 24 14 14 3 25 10 25 15 0 5 7 9 15 9 8
0 15 6 15 14 0 8 9 18 21 21 12 4 49 35 82 68 34 34 66 61 72 59 5 -2 7 0 3 3
-4 4 26 41 67 81 41 41 70 74 64 74 -8 0 -8 5 1 15 7 8 17 12 23 8 5 -3 7 -1
3 5 -3 6 0 17 8 25 8 8 12 17 9 21 -4 3 2 6 12 6 10 0 15 3 12 7 -4 3 2 12 13
20 11 8 20 20 20 27 0 8 7 17 16 20 8 3 13 10 9 15 -3 5 -1 12 5 16 6 4 8 11
5 16 -4 5 -1 9 4 9 6 0 11 7 11 15 0 8 7 15 16 15 8 0 13 4 9 9 -3 5 0 13 6
16 5 4 8 14 5 22 -3 8 -2 12 3 9 4 -3 16 3 26 14 13 15 14 20 5 20 -9 0 -7 5
5 13 10 8 15 19 11 25 -3 6 3 16 15 23 17 9 19 13 8 20 -8 5 -9 9 -4 9 6 0 16
9 23 21 11 16 11 19 1 13 -7 -4 -3 6 9 23 12 17 22 36 22 42 0 6 4 11 9 11 5
0 7 9 4 20 -3 12 0 20 6 20 7 0 11 8 9 18 -2 11 2 16 12 14 8 -2 12 0 8 3 -4
4 -3 16 3 26 7 14 6 19 -3 19 -9 0 -9 3 0 12 7 7 12 19 12 28 0 10 9 28 21 41
11 13 16 25 10 27 -5 2 -1 12 11 24 15 15 17 22 8 28 -9 6 -9 9 1 13 9 3 9 6
2 6 -8 1 -9 10 -3 31 5 17 6 30 2 30 -3 0 3 7 14 15 12 9 14 14 6 15 -10 0 -9
4 3 16 9 9 15 26 13 38 -1 11 1 27 5 34 5 7 3 12 -3 12 -6 0 -8 5 -5 11 10 15
13 59 5 59 -4 0 -5 11 -2 25 2 14 9 25 14 25 5 0 6 5 3 10 -3 6 -2 10 3 10 10
0 9 30 -2 48 -4 7 -2 19 4 27 10 12 10 15 0 15 -9 0 -7 7 5 20 10 11 14 20 10
20 -5 0 -4 5 2 11 6 6 8 24 4 42 -8 39 -8 48 2 65 5 7 4 12 -3 12 -7 0 -8 6
-1 18 7 14 6 25 -5 41 -9 12 -13 28 -10 36 2 7 0 16 -7 19 -9 3 -8 5 1 5 8 1
10 6 6 13 -10 16 -13 48 -4 48 4 0 6 8 4 18 -4 34 -16 62 -26 62 -6 0 -5 7 2
15 7 8 8 15 3 15 -10 0 -10 40 0 56 3 5 2 16 -3 24 -5 8 -5 22 1 32 7 12 6 18
-2 18 -6 0 -9 7 -5 15 3 9 0 15 -10 15 -8 0 -12 4 -9 10 3 5 -2 22 -12 37 -14
21 -14 25 -3 18 13 -7 13 -6 2 7 -9 11 -10 18 -2 23 7 5 4 18 -9 41 -14 23
-16 34 -8 34 7 1 2 6 -10 13 -16 9 -19 16 -12 29 7 12 5 20 -8 27 -10 6 -14
11 -9 11 5 0 2 8 -5 17 -8 9 -9 14 -2 10 8 -5 8 -1 0 18 -7 14 -15 25 -19 25
-4 0 -5 7 -2 15 4 8 -1 17 -9 21 -8 3 -13 13 -10 23 2 10 -2 24 -10 32 -7 8
-13 22 -11 32 1 9 -4 17 -12 17 -8 0 -14 5 -14 11 0 5 4 8 9 4 5 -3 3 8 -5 25
-9 17 -20 27 -26 23 -7 -4 -9 0 -5 10 3 9 2 19 -3 22 -6 4 -10 15 -10 26 0 10
-5 19 -11 19 -5 0 -7 5 -3 12 4 6 3 8 -3 5 -14 -9 -35 17 -37 43 0 11 -5 20
-11 21 -12 0 -35 41 -29 51 3 5 -2 8 -10 8 -9 0 -16 9 -16 20 0 11 -4 20 -10
20 -5 0 -10 10 -10 23 0 16 -3 18 -9 9 -6 -10 -10 -8 -14 10 -4 12 -6 24 -7
26 0 1 -15 16 -34 33 -19 16 -33 36 -30 44 3 8 -1 12 -13 12 -10 -1 -18 5 -18
13 -1 18 -170 190 -188 190 -7 0 -6 4 3 10 13 8 12 10 -2 10 -10 0 -18 4 -18
8 0 4 -14 13 -31 19 -17 7 -28 16 -25 21 3 6 -8 12 -24 14 -16 3 -32 0 -34 -6
-3 -7 -5 -7 -5 1 -1 7 -13 1 -27 -12 -15 -14 -33 -25 -41 -25 -8 0 -12 -4 -9
-9 3 -5 -7 -21 -21 -37 -15 -16 -26 -32 -25 -36 1 -5 -3 -8 -8 -8 -16 0 -55
-44 -52 -58 2 -8 -1 -11 -7 -7 -6 3 -11 -1 -11 -9 0 -9 -4 -16 -10 -16 -5 0
-10 -8 -10 -17 0 -9 -3 -14 -6 -10 -9 9 -40 -24 -48 -50 -4 -13 -12 -23 -17
-23 -6 0 -8 -4 -4 -9 3 -5 -4 -13 -16 -16 -17 -6 -19 -9 -8 -16 11 -7 11 -9 1
-9 -7 0 -10 -4 -7 -10 3 -5 -1 -10 -9 -10 -14 0 -33 -35 -28 -53 1 -4 -5 -10
-13 -13 -8 -3 -13 -10 -10 -14 2 -4 -4 -18 -15 -30 -11 -13 -20 -29 -20 -35 0
-7 -9 -19 -21 -26 -11 -8 -22 -27 -23 -43 -2 -16 -11 -35 -21 -42 -11 -8 -16
-21 -12 -34 3 -11 2 -20 -2 -20 -4 0 -13 -11 -21 -24 -11 -21 -22 -25 -84 -31
-39 -3 -111 -10 -161 -15 -161 -17 -199 -21 -260 -26 -33 -3 -73 -7 -90 -9
-16 -3 -59 -8 -95 -10 -91 -8 -188 -20 -200 -25 -3 -1 -29 -1 -57 0 -29 1 -58
-2 -64 -6 -11 -7 -91 -14 -152 -14 -16 0 -33 -2 -38 -6 -6 -3 -43 -8 -82 -11
-110 -7 -131 -9 -150 -18 -17 -7 -18 -6 -6 14 14 21 36 33 52 28 5 -1 15 9 22
23 8 14 14 21 15 17 0 -5 14 1 30 13 17 12 28 25 25 30 -3 5 8 5 25 0 16 -5
28 -5 27 0 -1 4 3 9 8 10 6 1 15 11 22 23 7 12 12 16 13 8 0 -11 3 -11 15 -1
8 7 15 9 15 4 0 -5 7 0 15 10 8 11 15 14 15 8 0 -9 5 -10 19 -3 10 6 22 7 26
3 3 -4 5 0 3 8 -2 8 3 14 10 12 7 -1 20 5 29 14 9 8 19 12 22 7 8 -11 51 -12
51 0 0 5 7 4 15 -3 11 -9 15 -9 15 -1 0 7 4 10 9 6 5 -3 17 2 25 11 9 8 16 11
16 5 0 -6 11 -7 28 -2 15 5 37 4 50 0 13 -5 21 -5 18 0 -3 4 8 8 24 7 17 -1
30 -4 30 -8 0 -4 12 -3 27 3 20 7 28 6 35 -3 6 -10 8 -10 8 2 1 11 4 10 16 -5
16 -21 38 -25 67 -12 10 5 17 4 17 -3 0 -8 6 -8 20 0 13 7 20 7 20 1 0 -6 6
-8 14 -5 7 3 20 -1 27 -9 8 -7 20 -12 27 -9 6 2 15 -3 18 -12 3 -8 12 -12 20
-9 8 3 14 0 14 -7 0 -7 7 -10 15 -6 8 3 15 1 15 -4 0 -5 7 -7 15 -4 8 4 15 2
15 -4 0 -5 7 -13 16 -16 8 -3 13 -2 10 2 -2 4 4 8 14 8 10 0 16 -5 13 -10 -4
-6 1 -6 13 -2 10 5 24 9 31 9 7 0 11 4 10 8 -1 4 7 15 19 25 27 24 48 64 35
64 -6 0 3 19 19 43 16 23 24 44 19 45 -5 2 -9 8 -9 14 0 6 7 7 16 4 12 -4 15
-2 11 9 -4 8 -2 17 3 20 6 3 15 15 21 27 9 16 8 19 -2 13 -7 -5 -5 2 4 16 9
13 17 32 17 42 0 22 24 49 35 39 5 -4 5 -1 1 6 -4 7 -2 19 4 27 7 8 9 15 5 15
-4 0 2 8 14 18 12 9 23 27 24 40 1 12 5 22 10 22 4 0 6 3 4 8 -3 4 1 13 9 20
8 7 14 10 14 5 0 -4 6 2 14 12 8 11 12 24 9 28 -3 5 3 15 13 22 13 10 15 14 5
15 -8 0 -4 8 10 20 17 14 20 19 9 20 -9 0 0 13 23 33 22 20 37 43 37 56 0 12
4 19 10 16 6 -3 10 1 10 10 0 9 4 14 9 10 5 -3 20 15 32 39 12 25 25 43 30 41
4 -3 6 9 5 26 -1 16 1 32 5 35 10 6 -29 79 -44 79 -6 0 -20 10 -30 22 -9 11
-25 20 -35 18 -9 -1 -25 7 -35 19 -10 11 -15 15 -11 7 5 -11 3 -13 -10 -8 -10
4 -20 7 -22 7 -2 0 -4 7 -4 16 0 14 -2 15 -17 3 -9 -8 -14 -9 -10 -2 8 13 -18
24 -48 19 -22 -3 -45 14 -37 29 2 6 -1 5 -8 -2 -10 -9 -16 -9 -27 2 -8 8 -27
13 -43 11 -16 -2 -31 0 -32 5 -2 4 -10 9 -18 11 -8 2 -21 9 -28 16 -8 7 -17
10 -22 7 -5 -3 -11 -1 -15 5 -4 6 -11 7 -17 4 -15 -10 -52 -11 -58 -2 -3 4
-15 9 -25 11 -11 1 -26 6 -32 10 -8 5 -13 3 -13 -4 0 -8 -4 -8 -15 1 -8 7 -12
17 -8 23 4 6 1 7 -7 2 -23 -14 -74 -11 -88 5 -12 13 -13 13 -6 0 6 -11 2 -10
-13 3 -11 9 -23 14 -26 10 -10 -10 -57 -10 -57 0 0 4 -10 3 -21 -4 -15 -8 -19
-8 -15 0 5 8 0 8 -18 1 -17 -6 -27 -6 -32 1 -4 8 -9 7 -15 -2 -6 -9 -9 -10 -9
-2 0 8 -9 9 -30 3 -19 -5 -30 -5 -30 1 0 6 -4 7 -10 4 -17 -11 -50 -14 -50 -5
0 5 -13 5 -30 0 -19 -5 -30 -5 -30 1 0 6 -5 7 -11 4 -14 -10 -59 -14 -59 -6 0
4 -9 7 -20 7 -11 0 -20 -3 -20 -7z"/>
</g>
</svg>
